<svg width="1920" height="477" viewBox="0 0 1920 477" fill="none" xmlns="http://www.w3.org/2000/svg">
<g filter="url(#filter0_f_10361_244)">
<ellipse cx="947" cy="293.6" rx="330" ry="20" fill="#5335FF" style="mix-blend-mode:plus-lighter"/>
</g>
<g filter="url(#filter1_f_10361_244)">
<ellipse cx="960" cy="323.1" rx="874" ry="98.5" fill="#5335FF" fill-opacity="0.2" style="mix-blend-mode:plus-lighter"/>
</g>
<g filter="url(#filter2_f_10361_244)" style="mix-blend-mode:soft-light">
<ellipse cx="960" cy="404.6" rx="1597" ry="180" fill="#FF3083" fill-opacity="0.2"/>
</g>
<g filter="url(#filter3_f_10361_244)" style="mix-blend-mode:plus-lighter">
<ellipse cx="949.5" cy="266.6" rx="243.5" ry="27" fill="#5335FF"/>
</g>
<g filter="url(#filter4_f_10361_244)" style="mix-blend-mode:plus-lighter">
<ellipse cx="950" cy="252.6" rx="104" ry="13" fill="#FFA135"/>
</g>
<g filter="url(#filter5_f_10361_244)" style="mix-blend-mode:plus-lighter">
<ellipse cx="950" cy="260.6" rx="104" ry="13" fill="#FFA135"/>
</g>
<g filter="url(#filter6_f_10361_244)" style="mix-blend-mode:plus-lighter">
<ellipse cx="960" cy="266.6" rx="175" ry="4" fill="#FFA135"/>
</g>
<g filter="url(#filter7_f_10361_244)" style="mix-blend-mode:plus-lighter">
<ellipse cx="950" cy="264.1" rx="105" ry="1.5" fill="#FFA135"/>
</g>
<g filter="url(#filter8_f_10361_244)" style="mix-blend-mode:plus-lighter">
<ellipse cx="950" cy="264.1" rx="69" ry="1.5" fill="#FFA135"/>
</g>
<g style="mix-blend-mode:overlay">
<path d="M950 247.1C1017.37 247.1 1078.35 250.122 1122.48 255.005C1144.55 257.447 1162.39 260.353 1174.7 263.574C1180.86 265.185 1185.61 266.869 1188.8 268.598C1190.4 269.463 1191.59 270.326 1192.37 271.177C1193.15 272.026 1193.5 272.832 1193.5 273.6C1193.5 274.368 1193.15 275.174 1192.37 276.023C1191.59 276.874 1190.4 277.737 1188.8 278.602C1185.61 280.331 1180.86 282.015 1174.7 283.626C1162.39 286.847 1144.55 289.753 1122.48 292.195C1078.35 297.078 1017.37 300.1 950 300.1C882.634 300.1 821.652 297.078 777.521 292.195C755.452 289.753 737.614 286.847 725.302 283.626C719.142 282.015 714.393 280.331 711.195 278.602C709.596 277.737 708.409 276.874 707.628 276.023C706.849 275.174 706.5 274.368 706.5 273.6C706.5 272.832 706.849 272.026 707.628 271.177C708.409 270.326 709.596 269.463 711.195 268.598C714.393 266.869 719.142 265.185 725.302 263.574C737.614 260.353 755.452 257.447 777.521 255.005C821.652 250.122 882.634 247.1 950 247.1Z" stroke="white" stroke-opacity="0.15"/>
<path d="M950 247.1C1017.37 247.1 1078.35 250.122 1122.48 255.005C1144.55 257.447 1162.39 260.353 1174.7 263.574C1180.86 265.185 1185.61 266.869 1188.8 268.598C1190.4 269.463 1191.59 270.326 1192.37 271.177C1193.15 272.026 1193.5 272.832 1193.5 273.6C1193.5 274.368 1193.15 275.174 1192.37 276.023C1191.59 276.874 1190.4 277.737 1188.8 278.602C1185.61 280.331 1180.86 282.015 1174.7 283.626C1162.39 286.847 1144.55 289.753 1122.48 292.195C1078.35 297.078 1017.37 300.1 950 300.1C882.634 300.1 821.652 297.078 777.521 292.195C755.452 289.753 737.614 286.847 725.302 283.626C719.142 282.015 714.393 280.331 711.195 278.602C709.596 277.737 708.409 276.874 707.628 276.023C706.849 275.174 706.5 274.368 706.5 273.6C706.5 272.832 706.849 272.026 707.628 271.177C708.409 270.326 709.596 269.463 711.195 268.598C714.393 266.869 719.142 265.185 725.302 263.574C737.614 260.353 755.452 257.447 777.521 255.005C821.652 250.122 882.634 247.1 950 247.1Z" stroke="white" stroke-opacity="0.15"/>
<path d="M950 247.1C1017.37 247.1 1078.35 250.122 1122.48 255.005C1144.55 257.447 1162.39 260.353 1174.7 263.574C1180.86 265.185 1185.61 266.869 1188.8 268.598C1190.4 269.463 1191.59 270.326 1192.37 271.177C1193.15 272.026 1193.5 272.832 1193.5 273.6C1193.5 274.368 1193.15 275.174 1192.37 276.023C1191.59 276.874 1190.4 277.737 1188.8 278.602C1185.61 280.331 1180.86 282.015 1174.7 283.626C1162.39 286.847 1144.55 289.753 1122.48 292.195C1078.35 297.078 1017.37 300.1 950 300.1C882.634 300.1 821.652 297.078 777.521 292.195C755.452 289.753 737.614 286.847 725.302 283.626C719.142 282.015 714.393 280.331 711.195 278.602C709.596 277.737 708.409 276.874 707.628 276.023C706.849 275.174 706.5 274.368 706.5 273.6C706.5 272.832 706.849 272.026 707.628 271.177C708.409 270.326 709.596 269.463 711.195 268.598C714.393 266.869 719.142 265.185 725.302 263.574C737.614 260.353 755.452 257.447 777.521 255.005C821.652 250.122 882.634 247.1 950 247.1Z" stroke="white" stroke-opacity="0.15"/>
<path d="M950 237.1C1074.8 237.1 1187.78 242.864 1269.56 252.181C1310.44 256.84 1343.51 262.385 1366.35 268.536C1377.77 271.613 1386.61 274.835 1392.57 278.158C1395.56 279.819 1397.8 281.494 1399.29 283.167C1400.78 284.838 1401.5 286.481 1401.5 288.1C1401.5 289.719 1400.78 291.362 1399.29 293.033C1397.8 294.706 1395.56 296.381 1392.57 298.042C1386.61 301.365 1377.77 304.587 1366.35 307.663C1343.51 313.815 1310.44 319.36 1269.56 324.019C1187.78 333.336 1074.8 339.1 950 339.1C825.196 339.1 712.216 333.336 630.444 324.019C589.555 319.36 556.487 313.815 533.65 307.663C522.228 304.587 513.395 301.365 507.427 298.042C504.443 296.381 502.199 294.706 500.707 293.033C499.218 291.362 498.5 289.719 498.5 288.1C498.5 286.481 499.218 284.838 500.707 283.167C502.199 281.494 504.443 279.819 507.427 278.158C513.395 274.835 522.228 271.613 533.65 268.536C556.487 262.385 589.555 256.84 630.444 252.181C712.216 242.864 825.196 237.1 950 237.1Z" stroke="white" stroke-opacity="0.15"/>
<path d="M950 237.1C1074.8 237.1 1187.78 242.864 1269.56 252.181C1310.44 256.84 1343.51 262.385 1366.35 268.536C1377.77 271.613 1386.61 274.835 1392.57 278.158C1395.56 279.819 1397.8 281.494 1399.29 283.167C1400.78 284.838 1401.5 286.481 1401.5 288.1C1401.5 289.719 1400.78 291.362 1399.29 293.033C1397.8 294.706 1395.56 296.381 1392.57 298.042C1386.61 301.365 1377.77 304.587 1366.35 307.663C1343.51 313.815 1310.44 319.36 1269.56 324.019C1187.78 333.336 1074.8 339.1 950 339.1C825.196 339.1 712.216 333.336 630.444 324.019C589.555 319.36 556.487 313.815 533.65 307.663C522.228 304.587 513.395 301.365 507.427 298.042C504.443 296.381 502.199 294.706 500.707 293.033C499.218 291.362 498.5 289.719 498.5 288.1C498.5 286.481 499.218 284.838 500.707 283.167C502.199 281.494 504.443 279.819 507.427 278.158C513.395 274.835 522.228 271.613 533.65 268.536C556.487 262.385 589.555 256.84 630.444 252.181C712.216 242.864 825.196 237.1 950 237.1Z" stroke="white" stroke-opacity="0.15"/>
<path d="M950 237.1C1074.8 237.1 1187.78 242.864 1269.56 252.181C1310.44 256.84 1343.51 262.385 1366.35 268.536C1377.77 271.613 1386.61 274.835 1392.57 278.158C1395.56 279.819 1397.8 281.494 1399.29 283.167C1400.78 284.838 1401.5 286.481 1401.5 288.1C1401.5 289.719 1400.78 291.362 1399.29 293.033C1397.8 294.706 1395.56 296.381 1392.57 298.042C1386.61 301.365 1377.77 304.587 1366.35 307.663C1343.51 313.815 1310.44 319.36 1269.56 324.019C1187.78 333.336 1074.8 339.1 950 339.1C825.196 339.1 712.216 333.336 630.444 324.019C589.555 319.36 556.487 313.815 533.65 307.663C522.228 304.587 513.395 301.365 507.427 298.042C504.443 296.381 502.199 294.706 500.707 293.033C499.218 291.362 498.5 289.719 498.5 288.1C498.5 286.481 499.218 284.838 500.707 283.167C502.199 281.494 504.443 279.819 507.427 278.158C513.395 274.835 522.228 271.613 533.65 268.536C556.487 262.385 589.555 256.84 630.444 252.181C712.216 242.864 825.196 237.1 950 237.1Z" stroke="white" stroke-opacity="0.15"/>
<path d="M950 227.1C1130.86 227.1 1294.59 235.942 1413.09 250.235C1472.35 257.382 1520.28 265.89 1553.39 275.33C1569.95 280.052 1582.77 284.999 1591.44 290.11C1600.15 295.244 1604.5 300.439 1604.5 305.6C1604.5 310.761 1600.15 315.956 1591.44 321.09C1582.77 326.201 1569.95 331.148 1553.39 335.87C1520.28 345.31 1472.35 353.818 1413.09 360.965C1294.59 375.258 1130.86 384.1 950 384.1C769.14 384.1 605.412 375.258 486.905 360.965C427.649 353.818 379.718 345.31 346.61 335.87C330.053 331.148 317.232 326.201 308.562 321.09C299.851 315.956 295.5 310.761 295.5 305.6C295.5 300.439 299.851 295.244 308.562 290.11C317.232 284.999 330.053 280.052 346.61 275.33C379.718 265.89 427.649 257.382 486.905 250.235C605.412 235.942 769.14 227.1 950 227.1Z" stroke="white" stroke-opacity="0.15"/>
<path d="M950 227.1C1130.86 227.1 1294.59 235.942 1413.09 250.235C1472.35 257.382 1520.28 265.89 1553.39 275.33C1569.95 280.052 1582.77 284.999 1591.44 290.11C1600.15 295.244 1604.5 300.439 1604.5 305.6C1604.5 310.761 1600.15 315.956 1591.44 321.09C1582.77 326.201 1569.95 331.148 1553.39 335.87C1520.28 345.31 1472.35 353.818 1413.09 360.965C1294.59 375.258 1130.86 384.1 950 384.1C769.14 384.1 605.412 375.258 486.905 360.965C427.649 353.818 379.718 345.31 346.61 335.87C330.053 331.148 317.232 326.201 308.562 321.09C299.851 315.956 295.5 310.761 295.5 305.6C295.5 300.439 299.851 295.244 308.562 290.11C317.232 284.999 330.053 280.052 346.61 275.33C379.718 265.89 427.649 257.382 486.905 250.235C605.412 235.942 769.14 227.1 950 227.1Z" stroke="white" stroke-opacity="0.15"/>
<path d="M950 227.1C1130.86 227.1 1294.59 235.942 1413.09 250.235C1472.35 257.382 1520.28 265.89 1553.39 275.33C1569.95 280.052 1582.77 284.999 1591.44 290.11C1600.15 295.244 1604.5 300.439 1604.5 305.6C1604.5 310.761 1600.15 315.956 1591.44 321.09C1582.77 326.201 1569.95 331.148 1553.39 335.87C1520.28 345.31 1472.35 353.818 1413.09 360.965C1294.59 375.258 1130.86 384.1 950 384.1C769.14 384.1 605.412 375.258 486.905 360.965C427.649 353.818 379.718 345.31 346.61 335.87C330.053 331.148 317.232 326.201 308.562 321.09C299.851 315.956 295.5 310.761 295.5 305.6C295.5 300.439 299.851 295.244 308.562 290.11C317.232 284.999 330.053 280.052 346.61 275.33C379.718 265.89 427.649 257.382 486.905 250.235C605.412 235.942 769.14 227.1 950 227.1Z" stroke="white" stroke-opacity="0.15"/>
<path d="M1237 244.6C1237 246.808 1238.79 248.598 1241 248.6C1238.79 248.602 1237 250.391 1237 252.6C1237 250.391 1235.21 248.602 1233 248.6C1235.21 248.598 1237 246.808 1237 244.6Z" fill="white"/>
<path d="M947 224.6C947.004 229.569 951.031 233.596 956 233.6C951.031 233.603 947.004 237.631 947 242.6C946.996 237.631 942.969 233.603 938 233.6C942.969 233.596 946.996 229.569 947 224.6Z" fill="white"/>
<path d="M1441.5 352.6C1441.5 355.085 1443.52 357.098 1446 357.1C1443.52 357.102 1441.5 359.115 1441.5 361.6C1441.5 359.115 1439.48 357.102 1437 357.1C1439.48 357.098 1441.5 355.085 1441.5 352.6Z" fill="#5079FF"/>
<path d="M1566.5 271.6C1566.5 276.293 1570.31 280.097 1575 280.1C1570.31 280.103 1566.5 283.907 1566.5 288.6C1566.5 283.907 1562.69 280.103 1558 280.1C1562.69 280.097 1566.5 276.293 1566.5 271.6Z" fill="white"/>
<path d="M761 280.6C761.003 285.017 764.583 288.597 769 288.6C764.583 288.603 761.003 292.183 761 296.6C760.997 292.183 757.417 288.603 753 288.6C757.417 288.597 760.997 285.017 761 280.6Z" fill="white"/>
<path d="M377.501 338.33C377.503 341.064 379.718 343.279 382.451 343.281C379.718 343.283 377.503 345.498 377.501 348.231C377.499 345.498 375.284 343.283 372.551 343.281C375.284 343.279 377.499 341.064 377.501 338.33Z" fill="white"/>
<g filter="url(#filter9_f_10361_244)" style="mix-blend-mode:plus-lighter">
<path d="M947 196.6C947.024 230.709 971.648 259.026 1004 264.6H890C922.352 259.026 946.976 230.709 947 196.6Z" fill="url(#paint0_linear_10361_244)"/>
</g>
</g>
<defs>
<filter id="filter0_f_10361_244" x="506.9" y="163.5" width="880.2" height="260.2" filterUnits="userSpaceOnUse" color-interpolation-filters="sRGB">
<feFlood flood-opacity="0" result="BackgroundImageFix"/>
<feBlend mode="normal" in="SourceGraphic" in2="BackgroundImageFix" result="shape"/>
<feGaussianBlur stdDeviation="55.05" result="effect1_foregroundBlur_10361_244"/>
</filter>
<filter id="filter1_f_10361_244" x="-138.6" y="-3.05176e-05" width="2197.2" height="646.2" filterUnits="userSpaceOnUse" color-interpolation-filters="sRGB">
<feFlood flood-opacity="0" result="BackgroundImageFix"/>
<feBlend mode="normal" in="SourceGraphic" in2="BackgroundImageFix" result="shape"/>
<feGaussianBlur stdDeviation="112.3" result="effect1_foregroundBlur_10361_244"/>
</filter>
<filter id="filter2_f_10361_244" x="-861.6" y="-3.05176e-05" width="3643.2" height="809.2" filterUnits="userSpaceOnUse" color-interpolation-filters="sRGB">
<feFlood flood-opacity="0" result="BackgroundImageFix"/>
<feBlend mode="normal" in="SourceGraphic" in2="BackgroundImageFix" result="shape"/>
<feGaussianBlur stdDeviation="112.3" result="effect1_foregroundBlur_10361_244"/>
</filter>
<filter id="filter3_f_10361_244" x="605.7" y="139.3" width="687.6" height="254.6" filterUnits="userSpaceOnUse" color-interpolation-filters="sRGB">
<feFlood flood-opacity="0" result="BackgroundImageFix"/>
<feBlend mode="normal" in="SourceGraphic" in2="BackgroundImageFix" result="shape"/>
<feGaussianBlur stdDeviation="50.15" result="effect1_foregroundBlur_10361_244"/>
</filter>
<filter id="filter4_f_10361_244" x="785.5" y="179.1" width="329" height="147" filterUnits="userSpaceOnUse" color-interpolation-filters="sRGB">
<feFlood flood-opacity="0" result="BackgroundImageFix"/>
<feBlend mode="normal" in="SourceGraphic" in2="BackgroundImageFix" result="shape"/>
<feGaussianBlur stdDeviation="30.25" result="effect1_foregroundBlur_10361_244"/>
</filter>
<filter id="filter5_f_10361_244" x="736.5" y="138.1" width="427" height="245" filterUnits="userSpaceOnUse" color-interpolation-filters="sRGB">
<feFlood flood-opacity="0" result="BackgroundImageFix"/>
<feBlend mode="normal" in="SourceGraphic" in2="BackgroundImageFix" result="shape"/>
<feGaussianBlur stdDeviation="54.75" result="effect1_foregroundBlur_10361_244"/>
</filter>
<filter id="filter6_f_10361_244" x="763.2" y="240.8" width="393.6" height="51.6" filterUnits="userSpaceOnUse" color-interpolation-filters="sRGB">
<feFlood flood-opacity="0" result="BackgroundImageFix"/>
<feBlend mode="normal" in="SourceGraphic" in2="BackgroundImageFix" result="shape"/>
<feGaussianBlur stdDeviation="10.9" result="effect1_foregroundBlur_10361_244"/>
</filter>
<filter id="filter7_f_10361_244" x="835.5" y="253.1" width="229" height="22" filterUnits="userSpaceOnUse" color-interpolation-filters="sRGB">
<feFlood flood-opacity="0" result="BackgroundImageFix"/>
<feBlend mode="normal" in="SourceGraphic" in2="BackgroundImageFix" result="shape"/>
<feGaussianBlur stdDeviation="4.75" result="effect1_foregroundBlur_10361_244"/>
</filter>
<filter id="filter8_f_10361_244" x="857.7" y="239.3" width="184.6" height="49.6" filterUnits="userSpaceOnUse" color-interpolation-filters="sRGB">
<feFlood flood-opacity="0" result="BackgroundImageFix"/>
<feBlend mode="normal" in="SourceGraphic" in2="BackgroundImageFix" result="shape"/>
<feGaussianBlur stdDeviation="11.65" result="effect1_foregroundBlur_10361_244"/>
</filter>
<filter id="filter9_f_10361_244" x="799.7" y="106.3" width="294.6" height="248.6" filterUnits="userSpaceOnUse" color-interpolation-filters="sRGB">
<feFlood flood-opacity="0" result="BackgroundImageFix"/>
<feBlend mode="normal" in="SourceGraphic" in2="BackgroundImageFix" result="shape"/>
<feGaussianBlur stdDeviation="45.15" result="effect1_foregroundBlur_10361_244"/>
</filter>
<linearGradient id="paint0_linear_10361_244" x1="947" y1="196.6" x2="947" y2="264.6" gradientUnits="userSpaceOnUse">
<stop stop-color="#6B42FF"/>
<stop offset="1" stop-color="#FAF6FF"/>
</linearGradient>
</defs>
</svg>
